<?xml version="1.0" encoding="UTF-8" standalone="no"?>
<!-- Generator: Adobe Illustrator 17.0.1, SVG Export Plug-In . SVG Version: 6.00 Build 0)  -->

<svg
   xmlns:dc="http://purl.org/dc/elements/1.1/"
   xmlns:cc="http://creativecommons.org/ns#"
   xmlns:rdf="http://www.w3.org/1999/02/22-rdf-syntax-ns#"
   xmlns:svg="http://www.w3.org/2000/svg"
   xmlns="http://www.w3.org/2000/svg"
   xmlns:sodipodi="http://sodipodi.sourceforge.net/DTD/sodipodi-0.dtd"
   xmlns:inkscape="http://www.inkscape.org/namespaces/inkscape"
   version="1.0"
   id="Capa_1"
   x="0px"
   y="0px"
   width="257.684px"
   height="69.653px"
   viewBox="0 0 257.684 69.653"
   enable-background="new 0 0 257.684 69.653"
   xml:space="preserve"
   inkscape:version="0.48.4 r9939"
   sodipodi:docname="logo.svg"><metadata
     id="metadata44"><rdf:RDF><cc:Work
         rdf:about=""><dc:format>image/svg+xml</dc:format><dc:type
           rdf:resource="http://purl.org/dc/dcmitype/StillImage" /><dc:title></dc:title></cc:Work></rdf:RDF></metadata><defs
     id="defs42" /><sodipodi:namedview
     pagecolor="#ffffff"
     bordercolor="#666666"
     borderopacity="1"
     objecttolerance="10"
     gridtolerance="10"
     guidetolerance="10"
     inkscape:pageopacity="0"
     inkscape:pageshadow="2"
     inkscape:window-width="1920"
     inkscape:window-height="1031"
     id="namedview40"
     showgrid="false"
     inkscape:zoom="1.7152792"
     inkscape:cx="20.696339"
     inkscape:cy="34.8265"
     inkscape:window-x="0"
     inkscape:window-y="27"
     inkscape:window-maximized="1"
     inkscape:current-layer="Capa_1" /><g
     id="g3"
     style="fill:#ffffff;fill-opacity:1"><path
       fill="#008ED6"
       d="M132.307,66.676h1.875v-4.883c0-2.009-0.953-2.888-2.635-2.888c-1.533,0-2.367,0.938-2.694,1.578h-0.03   c0,0,0.03-0.238,0.03-0.521v-0.878h-1.816v7.592h1.89v-3.483c0-0.358,0.03-0.7,0.134-1.013c0.283-0.908,1.028-1.548,2.04-1.548   c0.967,0,1.206,0.625,1.206,1.548V66.676z M140.861,61.942h-3.319c0.178-0.982,0.848-1.578,1.816-1.578   C140.192,60.364,140.832,60.915,140.861,61.942 M142.722,63.237c0,0,0.045-0.506,0.045-0.729c0-2.01-1.176-3.603-3.365-3.603   c-2.262,0-3.855,1.638-3.855,3.975c0,2.159,1.563,3.975,4.079,3.975c1.89,0,3.051-1.087,3.051-1.087l-0.729-1.355   c0,0-0.968,0.834-2.188,0.834c-1.131,0-2.158-0.685-2.278-2.01H142.722z M147.826,66.75c0.358,0,0.581-0.044,0.581-0.044v-1.652   c0,0-0.134,0.029-0.342,0.029c-0.522,0-1.504-0.178-1.504-1.429v-3.118h1.727v-1.504h-1.727v-2.017h-1.846v2.017h-1.027v1.504   h0.982v3.356C144.67,66.438,146.769,66.75,147.826,66.75 M154.575,61.942h-3.319c0.178-0.982,0.848-1.578,1.816-1.578   C153.905,60.364,154.545,60.915,154.575,61.942 M156.436,63.237c0,0,0.044-0.506,0.044-0.729c0-2.01-1.176-3.603-3.364-3.603   c-2.263,0-3.855,1.638-3.855,3.975c0,2.159,1.563,3.975,4.078,3.975c1.891,0,3.052-1.087,3.052-1.087l-0.729-1.355   c0,0-0.968,0.834-2.189,0.834c-1.131,0-2.158-0.685-2.277-2.01H156.436z M160.599,66.75c0.313,0,0.596-0.044,0.596-0.044v-1.652   c0,0-0.134,0.014-0.283,0.014c-0.491,0-0.774-0.208-0.774-1.042v-7.011h-1.876v7.294C158.262,66.483,159.557,66.75,160.599,66.75    M162.963,58.554h1.876v-1.531h-1.876V58.554z M162.955,66.676h1.891v-7.644h-1.891V66.676z M172.489,62.91   c0,1.503-0.864,2.352-1.906,2.352c-1.25,0-1.89-1.161-1.89-2.337c0-1.682,0.923-2.397,1.905-2.397   C171.715,60.528,172.489,61.466,172.489,62.91 M174.394,62.88c0-2.352-1.31-3.974-3.364-3.974c-1.786,0-2.442,1.25-2.442,1.25   h-0.029c0,0,0.029-0.238,0.029-0.521v-0.603h-1.727v10.621h1.891v-3.185c0-0.388-0.03-0.655-0.03-0.655h0.03   c0,0,0.67,1.042,2.174,1.042C172.92,66.855,174.394,65.292,174.394,62.88"
       id="path5"
       style="fill:#ffffff;fill-opacity:1" /><path
       fill="#737373"
       d="M118.317,65.763l-2.441-6.293h-0.718L118,66.577c-0.441,1.132-0.841,1.504-1.462,1.504   c-0.4,0-0.704-0.096-0.98-0.262l-0.22,0.578c0.4,0.207,0.772,0.29,1.172,0.29c0.911,0,1.545-0.496,2.07-1.972l2.579-7.245h-0.689   L118.317,65.763z M111.321,66.122c-1.242,0-2.443-1.174-2.443-3.037V62.96c0-1.849,1.201-3.036,2.443-3.036   c1.229,0,2.278,1.132,2.278,3.064v0.097C113.599,65.045,112.577,66.122,111.321,66.122 M111.39,66.727   c1.45,0,2.883-1.323,2.883-3.67V62.96c0-2.346-1.433-3.642-2.883-3.642c-1.201,0-1.96,0.771-2.471,1.669v-4.374h-0.633v9.962h0.633   v-1.476C109.402,65.97,110.175,66.727,111.39,66.727"
       id="path7"
       style="fill:#ffffff;fill-opacity:1" /><path
       fill="#008ED6"
       d="M238.134,33.037c0.55-4.1,3.15-6.95,6.85-6.95c4,0,6.3,3.05,6.7,6.95H238.134z M245.684,48.687   c4.85,0,8.3-1.95,10.8-4.95l-3.55-3.15c-2.1,2.05-4.2,3.15-7.15,3.15c-3.9,0-6.95-2.4-7.6-6.7h19.4c0.05-0.6,0.1-1.15,0.1-1.7   c0-7.6-4.25-14.2-12.65-14.2c-7.55,0-12.9,6.2-12.9,13.75v0.1C232.134,43.137,238.034,48.687,245.684,48.687 M215.684,48.287h5.45   l10.8-26.6h-6.35l-7.15,19.4l-7.1-19.4h-6.5L215.684,48.287z M195.385,48.087h6.05v-26.4h-6.05V48.087z M195.135,17.637h6.5v-5.75   h-6.5V17.637z M176.385,48.087h6.05v-10.05c0-7,3.7-10.45,9-10.45h0.35v-6.4c-4.65-0.2-7.7,2.5-9.35,6.45v-5.95h-6.05V48.087z    M146.135,42.487v-23.8h6.9c7.35,0,12.15,5.05,12.15,11.9v0.1c0,6.85-4.8,11.8-12.15,11.8H146.135z M139.985,48.087h13.05   c11,0,18.6-7.65,18.6-17.5v-0.1c0-9.85-7.6-17.4-18.6-17.4h-13.05V48.087z"
       id="path9"
       style="fill:#ffffff;fill-opacity:1" /><polygon
       fill="#DFA90F"
       points="119.136,48.287 124.586,48.287 135.386,21.687 129.036,21.687 121.886,41.087 114.786,21.687    108.286,21.687  "
       id="polygon11"
       style="fill:#ffffff;fill-opacity:1" /><path
       fill="#008ED6"
       d="M74.575,24.129c-2.219,0-4.412,0.395-6.427,1.148c-4.167-6.589-10.881-10.822-18.565-11.781   c-0.006,1.696-0.293,3.344-0.812,4.901c6.306,0.719,11.749,4.1,15.184,9.532l2.155,3.408l3.775-1.414   c1.459-0.545,3.08-0.833,4.689-0.833c9.011,0,16.342,7.19,16.342,16.202c0,9.011-7.331,16.201-16.342,16.201H17.24   c-6.771,0-12.279-5.366-12.279-12.136c0-6.827,5.508-12.311,12.279-12.311c0.755,0,1.51,0.135,2.181,0.324l4.873,1.39l1.273-4.891   c0.502-1.933,1.307-3.738,2.333-5.405c-0.53-0.401-1.019-0.775-1.435-1.108l-0.451-0.357c-0.639-0.508-1.322-1.052-2.01-1.645   c-1.444,2.221-2.56,4.663-3.239,7.276c-1.092-0.308-2.305-0.475-3.525-0.475C7.734,32.156,0,39.815,0,49.376   c0,9.505,7.734,17.117,17.24,17.117h57.335c11.746,0,21.303-9.435,21.303-21.182C95.878,33.564,86.321,24.129,74.575,24.129z"
       id="path13"
       style="fill:#ffffff;fill-opacity:1" /><linearGradient
       id="SVGID_1_"
       gradientUnits="userSpaceOnUse"
       x1="33.806"
       y1="33.119"
       x2="33.806"
       y2="0"><stop
         offset="0"
         style="stop-color:#008ED6"
         id="stop16" /><stop
         offset="0.1129"
         style="stop-color:#138DCF"
         id="stop18" /><stop
         offset="0.2321"
         style="stop-color:#208CCA"
         id="stop20" /><stop
         offset="0.3455"
         style="stop-color:#248CC8"
         id="stop22" /><stop
         offset="0.4536"
         style="stop-color:#216DB0"
         id="stop24" /><stop
         offset="0.5964"
         style="stop-color:#1E4995"
         id="stop26" /><stop
         offset="0.6727"
         style="stop-color:#1D3B8B"
         id="stop28" /><stop
         offset="0.719"
         style="stop-color:#1D3B8B"
         id="stop30" /><stop
         offset="1"
         style="stop-color:#1D3B8B"
         id="stop32" /></linearGradient><path
       fill="url(#SVGID_1_)"
       d="M25.572,13.425c-0.003-0.08-0.004-0.159-0.004-0.238c0.007-4.432,3.549-8.081,8.015-8.201   c0.076-0.003,0.152-0.003,0.228-0.003c4.444,0,8.108,3.535,8.229,7.999c0.002,0.071,0.002,0.142,0.002,0.212   c0.008,4.444-3.539,8.108-8.015,8.229c-0.074,0.002-0.151,0.002-0.226,0.002C29.355,21.425,25.694,17.889,25.572,13.425    M33.44,0.006c-7.42,0.199-13.066,6.375-13.073,13.799c-0.005,5.975,4.16,9.01,7.557,11.725c3.131,2.499,10.457,7.589,10.457,7.589   v-7.036c5.184-1.876,8.858-6.842,8.864-12.623c0-0.127-0.003-0.255-0.006-0.382C47.041,5.78,41.064,0,33.809,0   C33.686,0,33.564,0.004,33.44,0.006"
       id="path34"
       style="fill:#ffffff;fill-opacity:1" /><path
       fill="#008ED6"
       d="M33.823,39.486L33.823,39.486c0.043-0.044,0.088-0.092,0.12-0.124   C33.88,39.427,33.823,39.486,33.823,39.486 M61.966,43.195l-3.585-3.709c0,0-1.827-1.892-4.458-1.892H38.281   c0,0-2.63,0-4.458,1.892c-0.432,0.447-1.437,1.487-3.623,3.75c0,0-1.828,1.891-1.401,1.476c0.428-0.414,1.602-0.757,2.524-0.757   h29.558c1.313,0,2.261,0.467,2.587,0.799C63.468,44.754,63.794,45.086,61.966,43.195 M63.665,51.517v-3.463   c0,0,0-2.784-2.784-2.784H31.323c0,0-2.784,0-2.784,2.784v3.463c0,0,0,2.784,2.784,2.784h29.558   C60.881,54.301,63.665,54.301,63.665,51.517"
       id="path36"
       style="fill:#ffffff;fill-opacity:1" /><path
       fill="#FFFFFF"
       d="M56.829,49.726c-0.001-0.014-0.001-0.027-0.001-0.04c0.001-0.752,0.602-1.371,1.359-1.391   c0.013-0.001,0.026-0.001,0.039-0.001c0.754,0,1.375,0.6,1.396,1.357c0,0.012,0,0.024,0,0.036c0.001,0.753-0.6,1.375-1.359,1.395   c-0.013,0.001-0.026,0.001-0.039,0.001C57.47,51.083,56.849,50.483,56.829,49.726 M58.163,47.45   c-1.258,0.034-2.216,1.081-2.217,2.34c-0.001,1.014,0.705,1.528,1.281,1.989c0.532,0.424,1.774,1.287,1.774,1.287v-1.193   c0.879-0.319,1.502-1.161,1.503-2.141c0-0.022,0-0.044-0.001-0.065c-0.033-1.238-1.047-2.218-2.278-2.218   C58.205,47.449,58.184,47.45,58.163,47.45"
       id="path38"
       style="fill:#ffffff;fill-opacity:1" /></g></svg>